<svg width="48" height="48" viewBox="0 0 48 48" fill="none" xmlns="http://www.w3.org/2000/svg">
<g clip-path="url(#clip0_293_2296)">
<path d="M34.5 46.5H13.5C6.9 46.5 1.5 41.1 1.5 34.5V13.5C1.5 6.9 6.9 1.5 13.5 1.5H34.5C41.1 1.5 46.5 6.9 46.5 13.5V34.5C46.5 41.1 41.1 46.5 34.5 46.5Z" stroke="black" stroke-width="2" stroke-miterlimit="10" stroke-linecap="round" stroke-linejoin="round"/>
<path d="M24 34.5C29.799 34.5 34.5 29.799 34.5 24C34.5 18.201 29.799 13.5 24 13.5C18.201 13.5 13.5 18.201 13.5 24C13.5 29.799 18.201 34.5 24 34.5Z" stroke="black" stroke-width="2" stroke-miterlimit="10" stroke-linecap="round" stroke-linejoin="round"/>
<path d="M36 12C36.8284 12 37.5 11.3284 37.5 10.5C37.5 9.67157 36.8284 9 36 9C35.1716 9 34.5 9.67157 34.5 10.5C34.5 11.3284 35.1716 12 36 12Z" stroke="black" stroke-width="2" stroke-miterlimit="10" stroke-linecap="round" stroke-linejoin="round"/>
</g>
<defs>
<clipPath id="clip0_293_2296">
<rect width="48" height="48" fill="white"/>
</clipPath>
</defs>
</svg>
