<svg width="48" height="48" viewBox="0 0 48 48" fill="none" xmlns="http://www.w3.org/2000/svg">
<path d="M34.0109 41.5599C33.5909 41.5599 33.2489 41.2191 33.2489 40.7991V29.2359C33.2489 25.0551 31.1033 25.0551 30.2945 25.0551C28.0409 25.0551 26.8997 26.4615 26.8997 29.2359V40.8003C26.8997 41.2203 26.5589 41.5611 26.1389 41.5611H19.6002C19.1802 41.5611 18.8394 41.2203 18.8394 40.8003V18.7719C18.8394 18.3519 19.1802 18.0111 19.6002 18.0111H26.1401C26.5601 18.0111 26.9009 18.3519 26.9009 18.7719V19.5927L27.2945 19.2675C28.8425 17.9871 30.6893 17.3379 32.7833 17.3379C35.3717 17.3379 37.5509 18.1647 39.0845 19.7307C40.7045 21.3843 41.5601 23.8467 41.5601 26.8503V40.8003C41.5601 41.2203 41.2181 41.5611 40.7981 41.5611L34.0109 41.5599ZM30.2957 23.5311C31.9685 23.5311 34.7741 24.2727 34.7741 29.2359V40.0383H40.0361V26.8503C40.0361 21.7731 37.3925 18.8619 32.7833 18.8619C28.6673 18.8619 26.8841 21.9699 26.8097 22.1019C26.6753 22.3455 26.4209 22.4967 26.1437 22.4967C26.0813 22.4967 26.0177 22.4871 25.9529 22.4715C25.6145 22.3863 25.3782 22.0851 25.3782 21.7395V19.5351H20.3622V40.0395H25.3782V29.2359C25.3782 25.6635 27.2165 23.5311 30.2957 23.5311Z" fill="black"/>
<path d="M8.41581 41.5605C7.99581 41.5605 7.65381 41.2197 7.65381 40.7997V18.7725C7.65381 18.3525 7.99581 18.0117 8.41581 18.0117H15.2378C15.6578 18.0117 15.9986 18.3525 15.9986 18.7725V40.7997C15.9986 41.2197 15.6578 41.5605 15.2378 41.5605H8.41581ZM9.17781 40.0389H14.4758V19.5345H9.17781V40.0389Z" fill="black"/>
<path d="M11.7964 16.6468C9.1516 16.6468 7 14.4832 7 11.824C7 9.1636 9.1516 7 11.7964 7C14.4376 7 16.588 9.1648 16.588 11.8252C16.588 14.4832 14.4376 16.6468 11.7964 16.6468ZM11.7964 8.5192C9.9916 8.5192 8.524 10.0012 8.524 11.824C8.524 13.6456 9.9916 15.1252 11.7964 15.1252C13.6 15.1252 15.0664 13.6456 15.0664 11.824C15.0652 10.0024 13.6 8.5192 11.7964 8.5192Z" fill="black"/>
</svg>
