<svg width="49" height="48" viewBox="0 0 49 48" fill="none" xmlns="http://www.w3.org/2000/svg">
<g clip-path="url(#clip0_170_388)">
<path d="M40.0004 0H8.99961C4.30541 0 0.5 3.90295 0.5 8.71748V39.2825C0.5 44.0971 4.30541 48 8.99961 48H40.0004C44.6946 48 48.5 44.0971 48.5 39.2825V8.71748C48.5 3.90295 44.6946 0 40.0004 0Z" fill="#001E36"/>
<path d="M11.3088 33.6607V12.5568C11.3088 12.4038 11.3726 12.3259 11.5021 12.3259C11.8444 12.3259 12.1586 12.3259 12.6276 12.3095C13.0966 12.2932 13.6096 12.2874 14.1574 12.2768L15.8963 12.2432C16.5078 12.2323 17.1141 12.2268 17.715 12.2268C19.3464 12.2268 20.722 12.4359 21.8419 12.854C22.8487 13.204 23.7669 13.7794 24.53 14.5384C25.1771 15.1967 25.677 15.9914 25.9951 16.8674C26.296 17.7204 26.4481 18.6211 26.4444 19.5282C26.4444 21.2906 26.0473 22.7438 25.2532 23.8879C24.4535 25.037 23.3297 25.9072 22.0332 26.3814C20.6807 26.8989 19.1772 27.074 17.5246 27.074C17.0556 27.074 16.7198 27.0692 16.5266 27.0577C16.3334 27.0461 16.0436 27.0413 15.6571 27.0413V33.6299C15.662 33.6641 15.6603 33.699 15.652 33.7325C15.6437 33.766 15.629 33.7974 15.6087 33.8251C15.5885 33.8527 15.5631 33.876 15.5341 33.8935C15.505 33.911 15.4729 33.9225 15.4395 33.9272C15.4156 33.931 15.3912 33.931 15.3673 33.9272H11.5339C11.3801 33.9243 11.3088 33.8368 11.3088 33.6607ZM15.6571 16.2893V23.1722C15.936 23.1947 16.1936 23.2056 16.43 23.2049H17.4927C18.2746 23.2022 19.0514 23.075 19.7953 22.8278C20.433 22.6344 21.0031 22.2571 21.4376 21.7408C21.856 21.2348 22.0651 20.5293 22.0651 19.6244C22.0814 18.9855 21.9186 18.3552 21.5962 17.8082C21.2582 17.2792 20.7696 16.8697 20.1968 16.6356C19.45 16.3381 18.6526 16.1978 17.8519 16.2229C17.336 16.2229 16.8799 16.2283 16.4835 16.2392C16.087 16.2501 15.8131 16.2668 15.6618 16.2893H15.6571Z" fill="#31A8FF"/>
<path d="M38.8946 21.9207C38.2894 21.6015 37.6448 21.3681 36.9783 21.2271C36.2442 21.0541 35.4937 20.9654 34.7404 20.9626C34.3331 20.9514 33.9264 21.0017 33.5333 21.1117C33.2828 21.1686 33.0601 21.3148 32.9049 21.5244C32.8 21.692 32.7443 21.887 32.7445 22.0862C32.7502 22.2793 32.8181 22.465 32.9377 22.6143C33.1257 22.84 33.3555 23.0251 33.614 23.1588C34.0728 23.4115 34.5457 23.6364 35.0302 23.8322C36.111 24.2034 37.1437 24.708 38.1058 25.3348C38.7605 25.7594 39.3025 26.3437 39.6834 27.0356C40.0043 27.6917 40.1652 28.418 40.1523 29.1519C40.1713 30.1199 39.9017 31.0707 39.3795 31.8772C38.82 32.6953 38.0433 33.3314 37.1416 33.7098C36.1623 34.151 34.9536 34.3717 33.5155 34.3717C32.6023 34.3804 31.6907 34.2917 30.7954 34.1071C30.0898 33.9744 29.403 33.7524 28.7507 33.4462C28.6802 33.4091 28.6214 33.3521 28.5814 33.2819C28.5413 33.2117 28.5217 33.1312 28.5247 33.0499V29.4838C28.5206 29.4489 28.526 29.4134 28.5402 29.3813C28.5544 29.3493 28.577 29.3218 28.6054 29.302C28.633 29.2858 28.6648 29.2787 28.6965 29.2816C28.7282 29.2846 28.7583 29.2974 28.7826 29.3184C29.5537 29.7846 30.3911 30.1244 31.2644 30.3256C32.0337 30.5236 32.8228 30.6288 33.6158 30.6392C34.3662 30.6392 34.9189 30.5401 35.2741 30.3419C35.434 30.2668 35.5692 30.1458 35.6634 29.9935C35.7577 29.8412 35.8068 29.6642 35.805 29.4838C35.805 29.1972 35.644 28.9217 35.3219 28.6575C34.9999 28.3933 34.3446 28.0758 33.356 27.7051C32.345 27.3443 31.3864 26.8443 30.5066 26.2189C29.8773 25.7705 29.3589 25.1776 28.9927 24.4873C28.6754 23.8367 28.5146 23.1176 28.5238 22.3902C28.521 21.5139 28.7554 20.654 29.201 19.9063C29.7071 19.0849 30.4342 18.4311 31.2944 18.0237C32.2386 17.5395 33.4192 17.2974 34.8361 17.2974C35.6661 17.2903 36.4953 17.3508 37.316 17.4783C37.9101 17.5566 38.4908 17.7185 39.0418 17.9593C39.0856 17.9722 39.1258 17.9953 39.1593 18.0268C39.1928 18.0584 39.2188 18.0975 39.235 18.1411C39.2569 18.2216 39.2676 18.3048 39.2669 18.3883V21.7245C39.2695 21.763 39.2622 21.8016 39.2458 21.8364C39.2293 21.8712 39.2043 21.9009 39.1731 21.9227C39.1297 21.9445 39.082 21.9556 39.0336 21.9553C38.9853 21.955 38.9377 21.9431 38.8946 21.9207Z" fill="#31A8FF"/>
</g>
<defs>
<clipPath id="clip0_170_388">
<rect width="48" height="48" fill="white" transform="translate(0.5)"/>
</clipPath>
</defs>
</svg>
