<svg width="48" height="48" viewBox="0 0 48 48" fill="none" xmlns="http://www.w3.org/2000/svg">
<g clip-path="url(#clip0_170_396)">
<path d="M39.4999 0H8.50007C3.80561 0 0 3.90322 0 8.71808V39.2819C0 44.0968 3.80561 48 8.50007 48H39.4999C44.1944 48 48 44.0968 48 39.2819V8.71808C48 3.90322 44.1944 0 39.4999 0Z" fill="#330000"/>
<path d="M23.26 28.8061H15.8213L14.3085 33.6277C14.2885 33.716 14.2388 33.7943 14.168 33.8487C14.0973 33.9031 14.0101 33.9302 13.9218 33.9251H10.1546C9.93941 33.9251 9.86433 33.8038 9.9294 33.5613L16.3694 14.5349C16.432 14.3366 16.4964 14.112 16.5628 13.8611C16.6464 13.4202 16.6894 12.9723 16.6913 12.5231C16.6875 12.4965 16.6888 12.4695 16.6953 12.4434C16.7017 12.4174 16.7131 12.3929 16.7288 12.3714C16.7445 12.35 16.7642 12.3319 16.7868 12.3183C16.8094 12.3046 16.8343 12.2958 16.8603 12.2921C16.8789 12.2892 16.8979 12.2892 16.9166 12.2921H22.0361C22.1863 12.2921 22.2717 12.347 22.2942 12.4567L29.6033 33.594C29.6681 33.8134 29.6033 33.9241 29.41 33.9241H25.2243C25.1524 33.9323 25.0801 33.9134 25.0208 33.8709C24.9616 33.8284 24.9195 33.7652 24.9024 33.6931L23.26 28.8061ZM16.9813 24.642H22.0681C21.9398 24.2011 21.7896 23.7057 21.6176 23.1558C21.4455 22.6058 21.2631 22.0167 21.0704 21.3885L20.4904 19.5066C20.2971 18.879 20.12 18.2732 19.9592 17.6893C19.7984 17.1053 19.6523 16.5727 19.5209 16.0914H19.489C19.3077 16.9831 19.0818 17.8647 18.8124 18.7327C18.5121 19.7242 18.2061 20.7371 17.8945 21.7716C17.5829 22.806 17.2785 23.7628 16.9813 24.642Z" fill="#FF9A00"/>
<path d="M33.9496 15.794C33.6212 15.8074 33.2937 15.7496 32.9885 15.6244C32.6833 15.4991 32.4074 15.3093 32.1786 15.0672C31.9505 14.8146 31.7733 14.5182 31.6574 14.1951C31.5414 13.8719 31.4889 13.5285 31.5029 13.1844C31.4917 12.8445 31.5505 12.506 31.6753 12.1909C31.8001 11.8758 31.9882 11.5911 32.2274 11.3555C32.4643 11.1223 32.7438 10.9395 33.0498 10.8176C33.3558 10.6957 33.6824 10.6371 34.0106 10.6451C34.7833 10.6451 35.3896 10.8819 35.8294 11.3555C36.2756 11.852 36.5118 12.5097 36.4864 13.1844C36.4999 13.5299 36.4456 13.8746 36.3266 14.198C36.2076 14.5215 36.0264 14.8171 35.7937 15.0672C35.5517 15.312 35.2629 15.5029 34.9456 15.6279C34.6283 15.753 34.2892 15.8095 33.9496 15.794ZM31.7281 33.594V17.8077C31.7281 17.6094 31.8135 17.5103 31.9853 17.5103H35.9448C36.1157 17.5103 36.202 17.6065 36.202 17.8077V33.594C36.202 33.8135 36.1166 33.9242 35.9448 33.9242H32.0181C31.8248 33.9251 31.7281 33.8144 31.7281 33.594Z" fill="#FF9A00"/>
</g>
<defs>
<clipPath id="clip0_170_396">
<rect width="48" height="48" fill="white"/>
</clipPath>
</defs>
</svg>
